# MagicaVoxel @ Ephtracy

# group
o 

# material
mtllib Sun_V_coupler.mtl
usemtl palette

# normals
vn -1 0 0
vn 1 0 0
vn 0 0 1
vn 0 0 -1
vn 0 -1 0
vn 0 1 0

# texcoords
vt 0.326172 0.5
vt 0.794922 0.5
vt 0.865234 0.5

# verts
v 0.1 8.7 0.3
v 0.1 8.7 -0.2
v 0.1 8.9 0.3
v 0.1 8.9 -0.2
v 0.2 8.7 0.5
v 0.2 8.7 0.3
v 0.2 8.7 -0.2
v 0.2 8.7 -0.4
v 0.2 8.9 0.5
v 0.2 8.9 0.3
v 0.2 8.9 -0.2
v 0.2 8.9 -0.4
v 0.3 8.7 0.6
v 0.3 8.7 0.5
v 0.3 8.7 -0.4
v 0.3 8.7 -0.5
v 0.3 8.9 0.6
v 0.3 8.9 0.5
v 0.3 8.9 0.3
v 0.3 8.9 -0.2
v 0.3 8.9 -0.4
v 0.3 8.9 -0.5
v 0.3 9 0.3
v 0.3 9 -0.2
v 0.4 8.6 0.4
v 0.4 8.6 0.3
v 0.4 8.6 -0.2
v 0.4 8.6 -0.3
v 0.4 8.7 0.7
v 0.4 8.7 0.6
v 0.4 8.7 0.4
v 0.4 8.7 0.3
v 0.4 8.7 -0.2
v 0.4 8.7 -0.3
v 0.4 8.7 -0.5
v 0.4 8.7 -0.6
v 0.4 8.9 0.7
v 0.4 8.9 0.6
v 0.4 8.9 -0.5
v 0.4 8.9 -0.6
v 0.5 8.6 0.5
v 0.5 8.6 0.4
v 0.5 8.6 0.1
v 0.5 8.6 0
v 0.5 8.6 -0.3
v 0.5 8.6 -0.4
v 0.5 8.7 0.8
v 0.5 8.7 0.7
v 0.5 8.7 0.5
v 0.5 8.7 0.4
v 0.5 8.7 0.1
v 0.5 8.7 0
v 0.5 8.7 -0.3
v 0.5 8.7 -0.4
v 0.5 8.7 -0.6
v 0.5 8.7 -0.7
v 0.5 8.9 0.8
v 0.5 8.9 0.7
v 0.5 8.9 -0.6
v 0.5 8.9 -0.7
v 0.6 8.6 0.6
v 0.6 8.6 0.5
v 0.6 8.6 -0.4
v 0.6 8.6 -0.5
v 0.6 8.7 0.6
v 0.6 8.7 0.5
v 0.6 8.7 -0.4
v 0.6 8.7 -0.5
v 0.7 8.7 0.9
v 0.7 8.7 0.8
v 0.7 8.7 -0.7
v 0.7 8.7 -0.8
v 0.7 8.9 0.9
v 0.7 8.9 0.8
v 0.7 8.9 0.7
v 0.7 8.9 0.6
v 0.7 8.9 -0.5
v 0.7 8.9 -0.6
v 0.7 8.9 -0.7
v 0.7 8.9 -0.8
v 0.7 9 0.7
v 0.7 9 0.6
v 0.7 9 0
v 0.7 9 -0.1
v 0.7 9 -0.5
v 0.7 9 -0.6
v 0.7 9.1 0
v 0.7 9.1 -0.1
v 0.8 8.9 0.1
v 0.8 8.9 -0.2
v 0.8 9 0
v 0.8 9 -0.1
v 0.8 9.1 0.1
v 0.8 9.1 0
v 0.8 9.1 -0.1
v 0.8 9.1 -0.2
v 0.9 8.6 0.5
v 0.9 8.6 0.1
v 0.9 8.6 0
v 0.9 8.6 -0.4
v 0.9 8.7 0.5
v 0.9 8.7 0.1
v 0.9 8.7 0
v 0.9 8.7 -0.4
v 0.9 9 0.2
v 0.9 9 0.1
v 0.9 9 -0.2
v 0.9 9 -0.3
v 0.9 9.1 0.2
v 0.9 9.1 0.1
v 0.9 9.1 -0.2
v 0.9 9.1 -0.3
v 1.2 8.6 0.6
v 1.2 8.6 0.3
v 1.2 8.6 -0.2
v 1.2 8.6 -0.5
v 1.2 8.7 0.6
v 1.2 8.7 0.3
v 1.2 8.7 -0.2
v 1.2 8.7 -0.5
v 1.5 8.9 0.3
v 1.5 8.9 -0.2
v 1.5 9 0.3
v 1.5 9 -0.2
v 0.4 8.9 0.3
v 0.4 8.9 -0.2
v 0.4 9 0.3
v 0.4 9 -0.2
v 0.7 8.6 0.6
v 0.7 8.6 0.3
v 0.7 8.6 -0.2
v 0.7 8.6 -0.5
v 0.7 8.7 0.6
v 0.7 8.7 0.3
v 0.7 8.7 -0.2
v 0.7 8.7 -0.5
v 1 8.6 0.5
v 1 8.6 0.1
v 1 8.6 0
v 1 8.6 -0.4
v 1 8.7 0.5
v 1 8.7 0.1
v 1 8.7 0
v 1 8.7 -0.4
v 1 9 0.2
v 1 9 0.1
v 1 9 -0.2
v 1 9 -0.3
v 1 9.1 0.2
v 1 9.1 0.1
v 1 9.1 -0.2
v 1 9.1 -0.3
v 1.1 8.9 0.1
v 1.1 8.9 -0.2
v 1.1 9 0
v 1.1 9 -0.1
v 1.1 9.1 0.1
v 1.1 9.1 0
v 1.1 9.1 -0.1
v 1.1 9.1 -0.2
v 1.2 8.7 0.9
v 1.2 8.7 0.8
v 1.2 8.7 -0.7
v 1.2 8.7 -0.8
v 1.2 8.9 0.9
v 1.2 8.9 0.8
v 1.2 8.9 0.7
v 1.2 8.9 0.6
v 1.2 8.9 -0.5
v 1.2 8.9 -0.6
v 1.2 8.9 -0.7
v 1.2 8.9 -0.8
v 1.2 9 0.7
v 1.2 9 0.6
v 1.2 9 0
v 1.2 9 -0.1
v 1.2 9 -0.5
v 1.2 9 -0.6
v 1.2 9.1 0
v 1.2 9.1 -0.1
v 1.3 8.6 0.6
v 1.3 8.6 0.5
v 1.3 8.6 -0.4
v 1.3 8.6 -0.5
v 1.3 8.7 0.6
v 1.3 8.7 0.5
v 1.3 8.7 -0.4
v 1.3 8.7 -0.5
v 1.4 8.6 0.5
v 1.4 8.6 0.4
v 1.4 8.6 0.1
v 1.4 8.6 0
v 1.4 8.6 -0.3
v 1.4 8.6 -0.4
v 1.4 8.7 0.8
v 1.4 8.7 0.7
v 1.4 8.7 0.5
v 1.4 8.7 0.4
v 1.4 8.7 0.1
v 1.4 8.7 0
v 1.4 8.7 -0.3
v 1.4 8.7 -0.4
v 1.4 8.7 -0.6
v 1.4 8.7 -0.7
v 1.4 8.9 0.8
v 1.4 8.9 0.7
v 1.4 8.9 -0.6
v 1.4 8.9 -0.7
v 1.5 8.6 0.4
v 1.5 8.6 0.3
v 1.5 8.6 -0.2
v 1.5 8.6 -0.3
v 1.5 8.7 0.7
v 1.5 8.7 0.6
v 1.5 8.7 0.4
v 1.5 8.7 0.3
v 1.5 8.7 -0.2
v 1.5 8.7 -0.3
v 1.5 8.7 -0.5
v 1.5 8.7 -0.6
v 1.5 8.9 0.7
v 1.5 8.9 0.6
v 1.5 8.9 -0.5
v 1.5 8.9 -0.6
v 1.6 8.7 0.6
v 1.6 8.7 0.5
v 1.6 8.7 -0.4
v 1.6 8.7 -0.5
v 1.6 8.9 0.6
v 1.6 8.9 0.5
v 1.6 8.9 0.3
v 1.6 8.9 -0.2
v 1.6 8.9 -0.4
v 1.6 8.9 -0.5
v 1.6 9 0.3
v 1.6 9 -0.2
v 1.7 8.7 0.5
v 1.7 8.7 0.3
v 1.7 8.7 -0.2
v 1.7 8.7 -0.4
v 1.7 8.9 0.5
v 1.7 8.9 0.3
v 1.7 8.9 -0.2
v 1.7 8.9 -0.4
v 1.8 8.7 0.3
v 1.8 8.7 -0.2
v 1.8 8.9 0.3
v 1.8 8.9 -0.2
v 0.7 8.7 0.9
v 0.7 8.9 0.9
v 1.2 8.7 0.9
v 1.2 8.9 0.9
v 0.5 8.7 0.8
v 0.5 8.9 0.8
v 0.7 8.7 0.8
v 0.7 8.9 0.8
v 1.2 8.7 0.8
v 1.2 8.9 0.8
v 1.4 8.7 0.8
v 1.4 8.9 0.8
v 0.4 8.7 0.7
v 0.4 8.9 0.7
v 0.5 8.7 0.7
v 0.5 8.9 0.7
v 0.7 8.9 0.7
v 0.7 9 0.7
v 1.2 8.9 0.7
v 1.2 9 0.7
v 1.4 8.7 0.7
v 1.4 8.9 0.7
v 1.5 8.7 0.7
v 1.5 8.9 0.7
v 0.3 8.7 0.6
v 0.3 8.9 0.6
v 0.4 8.7 0.6
v 0.4 8.9 0.6
v 0.6 8.6 0.6
v 0.6 8.7 0.6
v 0.7 8.6 0.6
v 0.7 8.7 0.6
v 1.2 8.6 0.6
v 1.2 8.7 0.6
v 1.3 8.6 0.6
v 1.3 8.7 0.6
v 1.5 8.7 0.6
v 1.5 8.9 0.6
v 1.6 8.7 0.6
v 1.6 8.9 0.6
v 0.2 8.7 0.5
v 0.2 8.9 0.5
v 0.3 8.7 0.5
v 0.3 8.9 0.5
v 0.5 8.6 0.5
v 0.5 8.7 0.5
v 0.6 8.6 0.5
v 0.6 8.7 0.5
v 0.9 8.6 0.5
v 0.9 8.7 0.5
v 1 8.6 0.5
v 1 8.7 0.5
v 1.3 8.6 0.5
v 1.3 8.7 0.5
v 1.4 8.6 0.5
v 1.4 8.7 0.5
v 1.6 8.7 0.5
v 1.6 8.9 0.5
v 1.7 8.7 0.5
v 1.7 8.9 0.5
v 0.4 8.6 0.4
v 0.4 8.7 0.4
v 0.5 8.6 0.4
v 0.5 8.7 0.4
v 1.4 8.6 0.4
v 1.4 8.7 0.4
v 1.5 8.6 0.4
v 1.5 8.7 0.4
v 0.1 8.7 0.3
v 0.1 8.9 0.3
v 0.2 8.7 0.3
v 0.2 8.9 0.3
v 0.3 8.9 0.3
v 0.3 9 0.3
v 0.4 8.9 0.3
v 0.4 9 0.3
v 1.5 8.9 0.3
v 1.5 9 0.3
v 1.6 8.9 0.3
v 1.6 9 0.3
v 1.7 8.7 0.3
v 1.7 8.9 0.3
v 1.8 8.7 0.3
v 1.8 8.9 0.3
v 0.9 9 0.2
v 0.9 9.1 0.2
v 1 9 0.2
v 1 9.1 0.2
v 0.5 8.6 0.1
v 0.5 8.7 0.1
v 0.8 8.9 0.1
v 0.8 9.1 0.1
v 0.9 8.6 0.1
v 0.9 8.7 0.1
v 0.9 9 0.1
v 0.9 9.1 0.1
v 1 8.6 0.1
v 1 8.7 0.1
v 1 9 0.1
v 1 9.1 0.1
v 1.1 8.9 0.1
v 1.1 9.1 0.1
v 1.4 8.6 0.1
v 1.4 8.7 0.1
v 0.7 9 0
v 0.7 9.1 0
v 0.8 9 0
v 0.8 9.1 0
v 1.1 9 0
v 1.1 9.1 0
v 1.2 9 0
v 1.2 9.1 0
v 0.4 8.6 -0.2
v 0.4 8.7 -0.2
v 0.7 8.6 -0.2
v 0.7 8.7 -0.2
v 1.2 8.6 -0.2
v 1.2 8.7 -0.2
v 1.5 8.6 -0.2
v 1.5 8.7 -0.2
v 0.7 8.9 -0.5
v 0.7 9 -0.5
v 1.2 8.9 -0.5
v 1.2 9 -0.5
v 0.7 8.9 0.6
v 0.7 9 0.6
v 1.2 8.9 0.6
v 1.2 9 0.6
v 0.4 8.6 0.3
v 0.4 8.7 0.3
v 0.7 8.6 0.3
v 0.7 8.7 0.3
v 1.2 8.6 0.3
v 1.2 8.7 0.3
v 1.5 8.6 0.3
v 1.5 8.7 0.3
v 0.5 8.6 0
v 0.5 8.7 0
v 0.9 8.6 0
v 0.9 8.7 0
v 1 8.6 0
v 1 8.7 0
v 1.4 8.6 0
v 1.4 8.7 0
v 0.7 9 -0.1
v 0.7 9.1 -0.1
v 0.8 9 -0.1
v 0.8 9.1 -0.1
v 1.1 9 -0.1
v 1.1 9.1 -0.1
v 1.2 9 -0.1
v 1.2 9.1 -0.1
v 0.1 8.7 -0.2
v 0.1 8.9 -0.2
v 0.2 8.7 -0.2
v 0.2 8.9 -0.2
v 0.3 8.9 -0.2
v 0.3 9 -0.2
v 0.4 8.9 -0.2
v 0.4 9 -0.2
v 0.8 8.9 -0.2
v 0.8 9.1 -0.2
v 0.9 9 -0.2
v 0.9 9.1 -0.2
v 1 9 -0.2
v 1 9.1 -0.2
v 1.1 8.9 -0.2
v 1.1 9.1 -0.2
v 1.5 8.9 -0.2
v 1.5 9 -0.2
v 1.6 8.9 -0.2
v 1.6 9 -0.2
v 1.7 8.7 -0.2
v 1.7 8.9 -0.2
v 1.8 8.7 -0.2
v 1.8 8.9 -0.2
v 0.4 8.6 -0.3
v 0.4 8.7 -0.3
v 0.5 8.6 -0.3
v 0.5 8.7 -0.3
v 0.9 9 -0.3
v 0.9 9.1 -0.3
v 1 9 -0.3
v 1 9.1 -0.3
v 1.4 8.6 -0.3
v 1.4 8.7 -0.3
v 1.5 8.6 -0.3
v 1.5 8.7 -0.3
v 0.2 8.7 -0.4
v 0.2 8.9 -0.4
v 0.3 8.7 -0.4
v 0.3 8.9 -0.4
v 0.5 8.6 -0.4
v 0.5 8.7 -0.4
v 0.6 8.6 -0.4
v 0.6 8.7 -0.4
v 0.9 8.6 -0.4
v 0.9 8.7 -0.4
v 1 8.6 -0.4
v 1 8.7 -0.4
v 1.3 8.6 -0.4
v 1.3 8.7 -0.4
v 1.4 8.6 -0.4
v 1.4 8.7 -0.4
v 1.6 8.7 -0.4
v 1.6 8.9 -0.4
v 1.7 8.7 -0.4
v 1.7 8.9 -0.4
v 0.3 8.7 -0.5
v 0.3 8.9 -0.5
v 0.4 8.7 -0.5
v 0.4 8.9 -0.5
v 0.6 8.6 -0.5
v 0.6 8.7 -0.5
v 0.7 8.6 -0.5
v 0.7 8.7 -0.5
v 1.2 8.6 -0.5
v 1.2 8.7 -0.5
v 1.3 8.6 -0.5
v 1.3 8.7 -0.5
v 1.5 8.7 -0.5
v 1.5 8.9 -0.5
v 1.6 8.7 -0.5
v 1.6 8.9 -0.5
v 0.4 8.7 -0.6
v 0.4 8.9 -0.6
v 0.5 8.7 -0.6
v 0.5 8.9 -0.6
v 0.7 8.9 -0.6
v 0.7 9 -0.6
v 1.2 8.9 -0.6
v 1.2 9 -0.6
v 1.4 8.7 -0.6
v 1.4 8.9 -0.6
v 1.5 8.7 -0.6
v 1.5 8.9 -0.6
v 0.5 8.7 -0.7
v 0.5 8.9 -0.7
v 0.7 8.7 -0.7
v 0.7 8.9 -0.7
v 1.2 8.7 -0.7
v 1.2 8.9 -0.7
v 1.4 8.7 -0.7
v 1.4 8.9 -0.7
v 0.7 8.7 -0.8
v 0.7 8.9 -0.8
v 1.2 8.7 -0.8
v 1.2 8.9 -0.8
v 0.6 8.6 0.6
v 0.7 8.6 0.6
v 1.2 8.6 0.6
v 1.3 8.6 0.6
v 0.5 8.6 0.5
v 0.6 8.6 0.5
v 0.9 8.6 0.5
v 1 8.6 0.5
v 1.3 8.6 0.5
v 1.4 8.6 0.5
v 0.4 8.6 0.4
v 0.5 8.6 0.4
v 1.4 8.6 0.4
v 1.5 8.6 0.4
v 0.4 8.6 0.3
v 0.7 8.6 0.3
v 1.2 8.6 0.3
v 1.5 8.6 0.3
v 0.5 8.6 0.1
v 0.9 8.6 0.1
v 1 8.6 0.1
v 1.4 8.6 0.1
v 0.5 8.6 0
v 0.9 8.6 0
v 1 8.6 0
v 1.4 8.6 0
v 0.4 8.6 -0.2
v 0.7 8.6 -0.2
v 1.2 8.6 -0.2
v 1.5 8.6 -0.2
v 0.4 8.6 -0.3
v 0.5 8.6 -0.3
v 1.4 8.6 -0.3
v 1.5 8.6 -0.3
v 0.5 8.6 -0.4
v 0.6 8.6 -0.4
v 0.9 8.6 -0.4
v 1 8.6 -0.4
v 1.3 8.6 -0.4
v 1.4 8.6 -0.4
v 0.6 8.6 -0.5
v 0.7 8.6 -0.5
v 1.2 8.6 -0.5
v 1.3 8.6 -0.5
v 0.7 8.7 0.9
v 1.2 8.7 0.9
v 0.5 8.7 0.8
v 0.7 8.7 0.8
v 1.2 8.7 0.8
v 1.4 8.7 0.8
v 0.4 8.7 0.7
v 0.5 8.7 0.7
v 1.4 8.7 0.7
v 1.5 8.7 0.7
v 0.3 8.7 0.6
v 0.4 8.7 0.6
v 0.6 8.7 0.6
v 0.7 8.7 0.6
v 1.2 8.7 0.6
v 1.3 8.7 0.6
v 1.5 8.7 0.6
v 1.6 8.7 0.6
v 0.2 8.7 0.5
v 0.3 8.7 0.5
v 0.5 8.7 0.5
v 0.6 8.7 0.5
v 0.9 8.7 0.5
v 1 8.7 0.5
v 1.3 8.7 0.5
v 1.4 8.7 0.5
v 1.6 8.7 0.5
v 1.7 8.7 0.5
v 0.4 8.7 0.4
v 0.5 8.7 0.4
v 1.4 8.7 0.4
v 1.5 8.7 0.4
v 0.1 8.7 0.3
v 0.2 8.7 0.3
v 0.4 8.7 0.3
v 0.7 8.7 0.3
v 1.2 8.7 0.3
v 1.5 8.7 0.3
v 1.7 8.7 0.3
v 1.8 8.7 0.3
v 0.5 8.7 0.1
v 0.9 8.7 0.1
v 1 8.7 0.1
v 1.4 8.7 0.1
v 0.5 8.7 0
v 0.9 8.7 0
v 1 8.7 0
v 1.4 8.7 0
v 0.1 8.7 -0.2
v 0.2 8.7 -0.2
v 0.4 8.7 -0.2
v 0.7 8.7 -0.2
v 1.2 8.7 -0.2
v 1.5 8.7 -0.2
v 1.7 8.7 -0.2
v 1.8 8.7 -0.2
v 0.4 8.7 -0.3
v 0.5 8.7 -0.3
v 1.4 8.7 -0.3
v 1.5 8.7 -0.3
v 0.2 8.7 -0.4
v 0.3 8.7 -0.4
v 0.5 8.7 -0.4
v 0.6 8.7 -0.4
v 0.9 8.7 -0.4
v 1 8.7 -0.4
v 1.3 8.7 -0.4
v 1.4 8.7 -0.4
v 1.6 8.7 -0.4
v 1.7 8.7 -0.4
v 0.3 8.7 -0.5
v 0.4 8.7 -0.5
v 0.6 8.7 -0.5
v 0.7 8.7 -0.5
v 1.2 8.7 -0.5
v 1.3 8.7 -0.5
v 1.5 8.7 -0.5
v 1.6 8.7 -0.5
v 0.4 8.7 -0.6
v 0.5 8.7 -0.6
v 1.4 8.7 -0.6
v 1.5 8.7 -0.6
v 0.5 8.7 -0.7
v 0.7 8.7 -0.7
v 1.2 8.7 -0.7
v 1.4 8.7 -0.7
v 0.7 8.7 -0.8
v 1.2 8.7 -0.8
v 0.9 9 0.2
v 1 9 0.2
v 0.9 9 0.1
v 1 9 0.1
v 0.7 9 0
v 0.8 9 0
v 1.1 9 0
v 1.2 9 0
v 0.7 9 -0.1
v 0.8 9 -0.1
v 1.1 9 -0.1
v 1.2 9 -0.1
v 0.9 9 -0.2
v 1 9 -0.2
v 0.9 9 -0.3
v 1 9 -0.3
v 0.7 8.9 0.9
v 1.2 8.9 0.9
v 0.5 8.9 0.8
v 0.7 8.9 0.8
v 1.2 8.9 0.8
v 1.4 8.9 0.8
v 0.4 8.9 0.7
v 0.5 8.9 0.7
v 0.7 8.9 0.7
v 1.2 8.9 0.7
v 1.4 8.9 0.7
v 1.5 8.9 0.7
v 0.3 8.9 0.6
v 0.4 8.9 0.6
v 0.7 8.9 0.6
v 1.2 8.9 0.6
v 1.5 8.9 0.6
v 1.6 8.9 0.6
v 0.2 8.9 0.5
v 0.3 8.9 0.5
v 1.6 8.9 0.5
v 1.7 8.9 0.5
v 0.1 8.9 0.3
v 0.2 8.9 0.3
v 0.3 8.9 0.3
v 0.4 8.9 0.3
v 1.5 8.9 0.3
v 1.6 8.9 0.3
v 1.7 8.9 0.3
v 1.8 8.9 0.3
v 0.8 8.9 0.1
v 1.1 8.9 0.1
v 0.1 8.9 -0.2
v 0.2 8.9 -0.2
v 0.3 8.9 -0.2
v 0.4 8.9 -0.2
v 0.8 8.9 -0.2
v 1.1 8.9 -0.2
v 1.5 8.9 -0.2
v 1.6 8.9 -0.2
v 1.7 8.9 -0.2
v 1.8 8.9 -0.2
v 0.2 8.9 -0.4
v 0.3 8.9 -0.4
v 1.6 8.9 -0.4
v 1.7 8.9 -0.4
v 0.3 8.9 -0.5
v 0.4 8.9 -0.5
v 0.7 8.9 -0.5
v 1.2 8.9 -0.5
v 1.5 8.9 -0.5
v 1.6 8.9 -0.5
v 0.4 8.9 -0.6
v 0.5 8.9 -0.6
v 0.7 8.9 -0.6
v 1.2 8.9 -0.6
v 1.4 8.9 -0.6
v 1.5 8.9 -0.6
v 0.5 8.9 -0.7
v 0.7 8.9 -0.7
v 1.2 8.9 -0.7
v 1.4 8.9 -0.7
v 0.7 8.9 -0.8
v 1.2 8.9 -0.8
v 0.7 9 0.7
v 1.2 9 0.7
v 0.7 9 0.6
v 1.2 9 0.6
v 0.3 9 0.3
v 0.4 9 0.3
v 1.5 9 0.3
v 1.6 9 0.3
v 0.3 9 -0.2
v 0.4 9 -0.2
v 1.5 9 -0.2
v 1.6 9 -0.2
v 0.7 9 -0.5
v 1.2 9 -0.5
v 0.7 9 -0.6
v 1.2 9 -0.6
v 0.9 9.1 0.2
v 1 9.1 0.2
v 0.8 9.1 0.1
v 0.9 9.1 0.1
v 1 9.1 0.1
v 1.1 9.1 0.1
v 0.7 9.1 0
v 0.8 9.1 0
v 1.1 9.1 0
v 1.2 9.1 0
v 0.7 9.1 -0.1
v 0.8 9.1 -0.1
v 1.1 9.1 -0.1
v 1.2 9.1 -0.1
v 0.8 9.1 -0.2
v 0.9 9.1 -0.2
v 1 9.1 -0.2
v 1.1 9.1 -0.2
v 0.9 9.1 -0.3
v 1 9.1 -0.3

# faces
f 3/1/1 2/1/1 1/1/1
f 4/1/1 2/1/1 3/1/1
f 9/1/1 6/1/1 5/1/1
f 10/1/1 6/1/1 9/1/1
f 11/1/1 8/1/1 7/1/1
f 12/1/1 8/1/1 11/1/1
f 17/1/1 14/1/1 13/1/1
f 18/1/1 14/1/1 17/1/1
f 21/1/1 16/1/1 15/1/1
f 22/1/1 16/1/1 21/1/1
f 23/3/1 20/3/1 19/3/1
f 24/3/1 20/3/1 23/3/1
f 31/2/1 26/2/1 25/2/1
f 32/2/1 26/2/1 31/2/1
f 33/2/1 28/2/1 27/2/1
f 34/2/1 28/2/1 33/2/1
f 37/1/1 30/1/1 29/1/1
f 38/1/1 30/1/1 37/1/1
f 39/1/1 36/1/1 35/1/1
f 40/1/1 36/1/1 39/1/1
f 49/2/1 42/2/1 41/2/1
f 50/2/1 42/2/1 49/2/1
f 51/2/1 44/2/1 43/2/1
f 52/2/1 44/2/1 51/2/1
f 53/2/1 46/2/1 45/2/1
f 54/2/1 46/2/1 53/2/1
f 57/1/1 48/1/1 47/1/1
f 58/1/1 48/1/1 57/1/1
f 59/1/1 56/1/1 55/1/1
f 60/1/1 56/1/1 59/1/1
f 65/2/1 62/2/1 61/2/1
f 66/2/1 62/2/1 65/2/1
f 67/2/1 64/2/1 63/2/1
f 68/2/1 64/2/1 67/2/1
f 73/1/1 70/1/1 69/1/1
f 74/1/1 70/1/1 73/1/1
f 79/1/1 72/1/1 71/1/1
f 80/1/1 72/1/1 79/1/1
f 81/3/1 76/3/1 75/3/1
f 82/3/1 76/3/1 81/3/1
f 85/3/1 78/3/1 77/3/1
f 86/3/1 78/3/1 85/3/1
f 87/3/1 84/3/1 83/3/1
f 88/3/1 84/3/1 87/3/1
f 91/3/1 90/3/1 89/3/1
f 92/3/1 90/3/1 91/3/1
f 93/3/1 91/3/1 89/3/1
f 94/3/1 91/3/1 93/3/1
f 95/3/1 90/3/1 92/3/1
f 96/3/1 90/3/1 95/3/1
f 101/2/1 98/2/1 97/2/1
f 102/2/1 98/2/1 101/2/1
f 103/2/1 100/2/1 99/2/1
f 104/2/1 100/2/1 103/2/1
f 109/3/1 106/3/1 105/3/1
f 110/3/1 106/3/1 109/3/1
f 111/3/1 108/3/1 107/3/1
f 112/3/1 108/3/1 111/3/1
f 117/2/1 114/2/1 113/2/1
f 118/2/1 114/2/1 117/2/1
f 119/2/1 116/2/1 115/2/1
f 120/2/1 116/2/1 119/2/1
f 123/3/1 122/3/1 121/3/1
f 124/3/1 122/3/1 123/3/1
f 125/3/2 126/3/2 127/3/2
f 127/3/2 126/3/2 128/3/2
f 129/2/2 130/2/2 133/2/2
f 133/2/2 130/2/2 134/2/2
f 131/2/2 132/2/2 135/2/2
f 135/2/2 132/2/2 136/2/2
f 137/2/2 138/2/2 141/2/2
f 141/2/2 138/2/2 142/2/2
f 139/2/2 140/2/2 143/2/2
f 143/2/2 140/2/2 144/2/2
f 145/3/2 146/3/2 149/3/2
f 149/3/2 146/3/2 150/3/2
f 147/3/2 148/3/2 151/3/2
f 151/3/2 148/3/2 152/3/2
f 153/3/2 154/3/2 155/3/2
f 155/3/2 154/3/2 156/3/2
f 153/3/2 155/3/2 157/3/2
f 157/3/2 155/3/2 158/3/2
f 156/3/2 154/3/2 159/3/2
f 159/3/2 154/3/2 160/3/2
f 161/1/2 162/1/2 165/1/2
f 165/1/2 162/1/2 166/1/2
f 163/1/2 164/1/2 171/1/2
f 171/1/2 164/1/2 172/1/2
f 167/3/2 168/3/2 173/3/2
f 173/3/2 168/3/2 174/3/2
f 169/3/2 170/3/2 177/3/2
f 177/3/2 170/3/2 178/3/2
f 175/3/2 176/3/2 179/3/2
f 179/3/2 176/3/2 180/3/2
f 181/2/2 182/2/2 185/2/2
f 185/2/2 182/2/2 186/2/2
f 183/2/2 184/2/2 187/2/2
f 187/2/2 184/2/2 188/2/2
f 189/2/2 190/2/2 197/2/2
f 197/2/2 190/2/2 198/2/2
f 191/2/2 192/2/2 199/2/2
f 199/2/2 192/2/2 200/2/2
f 193/2/2 194/2/2 201/2/2
f 201/2/2 194/2/2 202/2/2
f 195/1/2 196/1/2 205/1/2
f 205/1/2 196/1/2 206/1/2
f 203/1/2 204/1/2 207/1/2
f 207/1/2 204/1/2 208/1/2
f 209/2/2 210/2/2 215/2/2
f 215/2/2 210/2/2 216/2/2
f 211/2/2 212/2/2 217/2/2
f 217/2/2 212/2/2 218/2/2
f 213/1/2 214/1/2 221/1/2
f 221/1/2 214/1/2 222/1/2
f 219/1/2 220/1/2 223/1/2
f 223/1/2 220/1/2 224/1/2
f 225/1/2 226/1/2 229/1/2
f 229/1/2 226/1/2 230/1/2
f 227/1/2 228/1/2 233/1/2
f 233/1/2 228/1/2 234/1/2
f 231/3/2 232/3/2 235/3/2
f 235/3/2 232/3/2 236/3/2
f 237/1/2 238/1/2 241/1/2
f 241/1/2 238/1/2 242/1/2
f 239/1/2 240/1/2 243/1/2
f 243/1/2 240/1/2 244/1/2
f 245/1/2 246/1/2 247/1/2
f 247/1/2 246/1/2 248/1/2
f 251/1/3 250/1/3 249/1/3
f 252/1/3 250/1/3 251/1/3
f 255/1/3 254/1/3 253/1/3
f 256/1/3 254/1/3 255/1/3
f 259/1/3 258/1/3 257/1/3
f 260/1/3 258/1/3 259/1/3
f 263/1/3 262/1/3 261/1/3
f 264/1/3 262/1/3 263/1/3
f 267/3/3 266/3/3 265/3/3
f 268/3/3 266/3/3 267/3/3
f 271/1/3 270/1/3 269/1/3
f 272/1/3 270/1/3 271/1/3
f 275/1/3 274/1/3 273/1/3
f 276/1/3 274/1/3 275/1/3
f 279/2/3 278/2/3 277/2/3
f 280/2/3 278/2/3 279/2/3
f 283/2/3 282/2/3 281/2/3
f 284/2/3 282/2/3 283/2/3
f 287/1/3 286/1/3 285/1/3
f 288/1/3 286/1/3 287/1/3
f 291/1/3 290/1/3 289/1/3
f 292/1/3 290/1/3 291/1/3
f 295/2/3 294/2/3 293/2/3
f 296/2/3 294/2/3 295/2/3
f 299/2/3 298/2/3 297/2/3
f 300/2/3 298/2/3 299/2/3
f 303/2/3 302/2/3 301/2/3
f 304/2/3 302/2/3 303/2/3
f 307/1/3 306/1/3 305/1/3
f 308/1/3 306/1/3 307/1/3
f 311/2/3 310/2/3 309/2/3
f 312/2/3 310/2/3 311/2/3
f 315/2/3 314/2/3 313/2/3
f 316/2/3 314/2/3 315/2/3
f 319/1/3 318/1/3 317/1/3
f 320/1/3 318/1/3 319/1/3
f 323/3/3 322/3/3 321/3/3
f 324/3/3 322/3/3 323/3/3
f 327/3/3 326/3/3 325/3/3
f 328/3/3 326/3/3 327/3/3
f 331/1/3 330/1/3 329/1/3
f 332/1/3 330/1/3 331/1/3
f 335/3/3 334/3/3 333/3/3
f 336/3/3 334/3/3 335/3/3
f 341/2/3 338/2/3 337/2/3
f 342/2/3 338/2/3 341/2/3
f 343/3/3 340/3/3 339/3/3
f 344/3/3 340/3/3 343/3/3
f 347/3/3 343/3/3 339/3/3
f 349/3/3 347/3/3 339/3/3
f 349/3/3 348/3/3 347/3/3
f 350/3/3 348/3/3 349/3/3
f 351/2/3 346/2/3 345/2/3
f 352/2/3 346/2/3 351/2/3
f 355/3/3 354/3/3 353/3/3
f 356/3/3 354/3/3 355/3/3
f 359/3/3 358/3/3 357/3/3
f 360/3/3 358/3/3 359/3/3
f 363/2/3 362/2/3 361/2/3
f 364/2/3 362/2/3 363/2/3
f 367/2/3 366/2/3 365/2/3
f 368/2/3 366/2/3 367/2/3
f 371/3/3 370/3/3 369/3/3
f 372/3/3 370/3/3 371/3/3
f 373/3/4 374/3/4 375/3/4
f 375/3/4 374/3/4 376/3/4
f 377/2/4 378/2/4 379/2/4
f 379/2/4 378/2/4 380/2/4
f 381/2/4 382/2/4 383/2/4
f 383/2/4 382/2/4 384/2/4
f 385/2/4 386/2/4 387/2/4
f 387/2/4 386/2/4 388/2/4
f 389/2/4 390/2/4 391/2/4
f 391/2/4 390/2/4 392/2/4
f 393/3/4 394/3/4 395/3/4
f 395/3/4 394/3/4 396/3/4
f 397/3/4 398/3/4 399/3/4
f 399/3/4 398/3/4 400/3/4
f 401/1/4 402/1/4 403/1/4
f 403/1/4 402/1/4 404/1/4
f 405/3/4 406/3/4 407/3/4
f 407/3/4 406/3/4 408/3/4
f 409/3/4 410/3/4 411/3/4
f 411/3/4 410/3/4 412/3/4
f 409/3/4 411/3/4 413/3/4
f 409/3/4 413/3/4 415/3/4
f 413/3/4 414/3/4 415/3/4
f 415/3/4 414/3/4 416/3/4
f 417/3/4 418/3/4 419/3/4
f 419/3/4 418/3/4 420/3/4
f 421/1/4 422/1/4 423/1/4
f 423/1/4 422/1/4 424/1/4
f 425/2/4 426/2/4 427/2/4
f 427/2/4 426/2/4 428/2/4
f 429/3/4 430/3/4 431/3/4
f 431/3/4 430/3/4 432/3/4
f 433/2/4 434/2/4 435/2/4
f 435/2/4 434/2/4 436/2/4
f 437/1/4 438/1/4 439/1/4
f 439/1/4 438/1/4 440/1/4
f 441/2/4 442/2/4 443/2/4
f 443/2/4 442/2/4 444/2/4
f 445/2/4 446/2/4 447/2/4
f 447/2/4 446/2/4 448/2/4
f 449/2/4 450/2/4 451/2/4
f 451/2/4 450/2/4 452/2/4
f 453/1/4 454/1/4 455/1/4
f 455/1/4 454/1/4 456/1/4
f 457/1/4 458/1/4 459/1/4
f 459/1/4 458/1/4 460/1/4
f 461/2/4 462/2/4 463/2/4
f 463/2/4 462/2/4 464/2/4
f 465/2/4 466/2/4 467/2/4
f 467/2/4 466/2/4 468/2/4
f 469/1/4 470/1/4 471/1/4
f 471/1/4 470/1/4 472/1/4
f 473/1/4 474/1/4 475/1/4
f 475/1/4 474/1/4 476/1/4
f 477/3/4 478/3/4 479/3/4
f 479/3/4 478/3/4 480/3/4
f 481/1/4 482/1/4 483/1/4
f 483/1/4 482/1/4 484/1/4
f 485/1/4 486/1/4 487/1/4
f 487/1/4 486/1/4 488/1/4
f 489/1/4 490/1/4 491/1/4
f 491/1/4 490/1/4 492/1/4
f 493/1/4 494/1/4 495/1/4
f 495/1/4 494/1/4 496/1/4
f 502/2/5 498/2/5 497/2/5
f 505/2/5 500/2/5 499/2/5
f 508/2/5 502/2/5 501/2/5
f 509/2/5 506/2/5 505/2/5
f 511/2/5 508/2/5 507/2/5
f 512/2/5 498/2/5 502/2/5
f 512/2/5 508/2/5 511/2/5
f 512/2/5 502/2/5 508/2/5
f 513/2/5 510/2/5 509/2/5
f 513/2/5 505/2/5 499/2/5
f 513/2/5 509/2/5 505/2/5
f 514/2/5 510/2/5 513/2/5
f 516/2/5 504/2/5 503/2/5
f 517/2/5 504/2/5 516/2/5
f 519/2/5 516/2/5 515/2/5
f 519/2/5 518/2/5 517/2/5
f 519/2/5 517/2/5 516/2/5
f 520/2/5 518/2/5 519/2/5
f 521/2/5 518/2/5 520/2/5
f 522/2/5 518/2/5 521/2/5
f 527/2/5 524/2/5 523/2/5
f 528/2/5 524/2/5 527/2/5
f 529/2/5 526/2/5 525/2/5
f 530/2/5 526/2/5 529/2/5
f 531/2/5 524/2/5 528/2/5
f 532/2/5 524/2/5 531/2/5
f 533/2/5 521/2/5 520/2/5
f 534/2/5 521/2/5 533/2/5
f 535/2/5 529/2/5 525/2/5
f 536/2/5 529/2/5 535/2/5
f 537/2/5 524/2/5 532/2/5
f 538/2/5 524/2/5 537/2/5
f 539/2/5 535/2/5 525/2/5
f 540/2/5 535/2/5 539/2/5
f 544/1/5 542/1/5 541/1/5
f 545/1/5 542/1/5 544/1/5
f 548/1/5 544/1/5 543/1/5
f 548/1/5 546/1/5 545/1/5
f 548/1/5 545/1/5 544/1/5
f 549/1/5 546/1/5 548/1/5
f 552/1/5 548/1/5 547/1/5
f 552/1/5 550/1/5 549/1/5
f 552/1/5 549/1/5 548/1/5
f 553/1/5 550/1/5 552/1/5
f 554/1/5 550/1/5 553/1/5
f 555/1/5 550/1/5 554/1/5
f 556/1/5 550/1/5 555/1/5
f 557/1/5 550/1/5 556/1/5
f 560/1/5 552/1/5 551/1/5
f 560/1/5 553/1/5 552/1/5
f 561/1/5 553/1/5 560/1/5
f 562/1/5 553/1/5 561/1/5
f 563/1/5 555/1/5 554/1/5
f 564/1/5 555/1/5 563/1/5
f 565/1/5 557/1/5 556/1/5
f 565/1/5 558/1/5 557/1/5
f 566/1/5 558/1/5 565/1/5
f 567/1/5 558/1/5 566/1/5
f 569/1/5 560/1/5 559/1/5
f 569/1/5 561/1/5 560/1/5
f 570/1/5 561/1/5 569/1/5
f 571/1/5 568/1/5 567/1/5
f 571/1/5 567/1/5 566/1/5
f 572/1/5 568/1/5 571/1/5
f 574/1/5 569/1/5 559/1/5
f 575/1/5 569/1/5 574/1/5
f 576/1/5 563/1/5 554/1/5
f 577/1/5 555/1/5 564/1/5
f 578/1/5 568/1/5 572/1/5
f 579/1/5 568/1/5 578/1/5
f 581/1/5 576/1/5 575/1/5
f 581/1/5 575/1/5 574/1/5
f 581/1/5 574/1/5 573/1/5
f 582/1/5 563/1/5 576/1/5
f 582/1/5 576/1/5 581/1/5
f 583/1/5 580/1/5 579/1/5
f 583/1/5 577/1/5 564/1/5
f 583/1/5 579/1/5 578/1/5
f 583/1/5 578/1/5 577/1/5
f 584/1/5 580/1/5 583/1/5
f 585/1/5 581/1/5 573/1/5
f 588/1/5 580/1/5 584/1/5
f 589/1/5 586/1/5 585/1/5
f 589/1/5 585/1/5 573/1/5
f 590/1/5 586/1/5 589/1/5
f 591/1/5 586/1/5 590/1/5
f 592/1/5 586/1/5 591/1/5
f 593/1/5 588/1/5 587/1/5
f 594/1/5 580/1/5 588/1/5
f 594/1/5 588/1/5 593/1/5
f 595/1/5 580/1/5 594/1/5
f 596/1/5 580/1/5 595/1/5
f 597/1/5 591/1/5 590/1/5
f 600/1/5 595/1/5 594/1/5
f 601/1/5 598/1/5 597/1/5
f 601/1/5 597/1/5 590/1/5
f 602/1/5 598/1/5 601/1/5
f 603/1/5 598/1/5 602/1/5
f 605/1/5 586/1/5 592/1/5
f 606/1/5 593/1/5 587/1/5
f 608/1/5 600/1/5 599/1/5
f 609/1/5 595/1/5 600/1/5
f 609/1/5 600/1/5 608/1/5
f 610/1/5 595/1/5 609/1/5
f 611/1/5 604/1/5 603/1/5
f 611/1/5 603/1/5 602/1/5
f 612/1/5 604/1/5 611/1/5
f 613/1/5 604/1/5 612/1/5
f 614/1/5 605/1/5 592/1/5
f 614/1/5 606/1/5 605/1/5
f 615/1/5 593/1/5 606/1/5
f 615/1/5 606/1/5 614/1/5
f 616/1/5 608/1/5 607/1/5
f 616/1/5 609/1/5 608/1/5
f 617/1/5 609/1/5 616/1/5
f 618/1/5 609/1/5 617/1/5
f 619/1/5 613/1/5 612/1/5
f 619/1/5 617/1/5 616/1/5
f 619/1/5 616/1/5 615/1/5
f 619/1/5 615/1/5 614/1/5
f 619/1/5 614/1/5 613/1/5
f 620/1/5 617/1/5 619/1/5
f 621/1/5 617/1/5 620/1/5
f 622/1/5 617/1/5 621/1/5
f 623/1/5 621/1/5 620/1/5
f 624/1/5 621/1/5 623/1/5
f 625/1/5 621/1/5 624/1/5
f 626/1/5 621/1/5 625/1/5
f 627/1/5 625/1/5 624/1/5
f 628/1/5 625/1/5 627/1/5
f 631/3/5 630/3/5 629/3/5
f 632/3/5 630/3/5 631/3/5
f 637/3/5 634/3/5 633/3/5
f 638/3/5 634/3/5 637/3/5
f 639/3/5 636/3/5 635/3/5
f 640/3/5 636/3/5 639/3/5
f 643/3/5 642/3/5 641/3/5
f 644/3/5 642/3/5 643/3/5
f 645/1/6 646/1/6 648/1/6
f 648/1/6 646/1/6 649/1/6
f 647/1/6 648/1/6 652/1/6
f 649/1/6 650/1/6 652/1/6
f 648/1/6 649/1/6 652/1/6
f 652/1/6 650/1/6 653/1/6
f 653/1/6 650/1/6 654/1/6
f 654/1/6 650/1/6 655/1/6
f 651/1/6 652/1/6 658/1/6
f 652/1/6 653/1/6 658/1/6
f 658/1/6 653/1/6 659/1/6
f 654/1/6 655/1/6 660/1/6
f 655/1/6 656/1/6 660/1/6
f 660/1/6 656/1/6 661/1/6
f 658/1/6 659/1/6 664/1/6
f 661/1/6 662/1/6 664/1/6
f 660/1/6 661/1/6 664/1/6
f 659/1/6 660/1/6 664/1/6
f 657/1/6 658/1/6 664/1/6
f 664/1/6 662/1/6 665/1/6
f 663/1/6 664/1/6 668/1/6
f 665/1/6 666/1/6 668/1/6
f 664/1/6 665/1/6 668/1/6
f 668/1/6 666/1/6 669/1/6
f 669/1/6 666/1/6 670/1/6
f 670/1/6 666/1/6 671/1/6
f 671/1/6 666/1/6 672/1/6
f 672/1/6 666/1/6 673/1/6
f 670/1/6 671/1/6 675/1/6
f 675/1/6 671/1/6 676/1/6
f 667/1/6 668/1/6 677/1/6
f 668/1/6 669/1/6 677/1/6
f 677/1/6 669/1/6 678/1/6
f 678/1/6 669/1/6 679/1/6
f 670/1/6 675/1/6 680/1/6
f 680/1/6 675/1/6 681/1/6
f 676/1/6 671/1/6 682/1/6
f 682/1/6 671/1/6 683/1/6
f 673/1/6 674/1/6 684/1/6
f 672/1/6 673/1/6 684/1/6
f 684/1/6 674/1/6 685/1/6
f 685/1/6 674/1/6 686/1/6
f 680/1/6 681/1/6 687/1/6
f 678/1/6 679/1/6 687/1/6
f 684/1/6 685/1/6 687/1/6
f 683/1/6 684/1/6 687/1/6
f 682/1/6 683/1/6 687/1/6
f 681/1/6 682/1/6 687/1/6
f 679/1/6 680/1/6 687/1/6
f 687/1/6 685/1/6 688/1/6
f 688/1/6 685/1/6 689/1/6
f 689/1/6 685/1/6 690/1/6
f 688/1/6 689/1/6 691/1/6
f 691/1/6 689/1/6 692/1/6
f 692/1/6 689/1/6 693/1/6
f 693/1/6 689/1/6 694/1/6
f 694/1/6 689/1/6 695/1/6
f 695/1/6 689/1/6 696/1/6
f 692/1/6 693/1/6 697/1/6
f 697/1/6 693/1/6 698/1/6
f 698/1/6 693/1/6 699/1/6
f 694/1/6 695/1/6 700/1/6
f 700/1/6 695/1/6 701/1/6
f 701/1/6 695/1/6 702/1/6
f 698/1/6 699/1/6 703/1/6
f 700/1/6 701/1/6 703/1/6
f 699/1/6 700/1/6 703/1/6
f 703/1/6 701/1/6 704/1/6
f 704/1/6 701/1/6 705/1/6
f 705/1/6 701/1/6 706/1/6
f 704/1/6 705/1/6 707/1/6
f 707/1/6 705/1/6 708/1/6
f 709/3/6 710/3/6 711/3/6
f 711/3/6 710/3/6 712/3/6
f 713/3/6 714/3/6 717/3/6
f 717/3/6 714/3/6 718/3/6
f 715/3/6 716/3/6 719/3/6
f 719/3/6 716/3/6 720/3/6
f 721/3/6 722/3/6 723/3/6
f 723/3/6 722/3/6 724/3/6
f 725/3/6 726/3/6 728/3/6
f 728/3/6 726/3/6 729/3/6
f 727/3/6 728/3/6 732/3/6
f 729/3/6 730/3/6 732/3/6
f 728/3/6 729/3/6 732/3/6
f 732/3/6 730/3/6 733/3/6
f 731/3/6 732/3/6 735/3/6
f 733/3/6 734/3/6 735/3/6
f 732/3/6 733/3/6 735/3/6
f 735/3/6 734/3/6 736/3/6
f 736/3/6 734/3/6 737/3/6
f 737/3/6 734/3/6 738/3/6
f 736/3/6 737/3/6 739/3/6
f 739/3/6 737/3/6 740/3/6
f 740/3/6 737/3/6 741/3/6
f 741/3/6 737/3/6 742/3/6
f 740/3/6 741/3/6 743/3/6
f 743/3/6 741/3/6 744/3/6
